<svg xmlns="http://www.w3.org/2000/svg" version="1" viewBox="0 0 343 343"><path d="M1117 3414 c-562 -102 -1003 -546 -1101 -1109 -21 -118 -21 -352 0 -470 74 -421 341 -784 721 -978 204 -104 388 -147 629 -147 268 0 487 62 728 207 l58 36 462 -461 c317 -317 473 -466 498 -477 84 -34 192 -11 255 56 61 65 81 166 48 247 -11 25 -160 181 -477 498 l-461 462 36 58 c145 241 207 460 207 728 0 241 -43 425 -147 629 -194 380 -557 647 -978 721 -112 20 -369 19 -478 0z m508 -344 c382 -104 669 -412 749 -802 21 -101 21 -295 0 -396 -86 -417 -399 -730 -816 -816 -101 -21 -295 -21 -396 0 -322 66 -583 267 -727 559 -84 169 -100 244 -100 455 0 211 16 286 100 455 143 289 408 494 725 561 102 21 363 12 465 -16z" transform="matrix(.1 0 0 -.1 0 343)"/></svg>