<svg xmlns="http://www.w3.org/2000/svg" version="1" viewBox="0 0 869 582"><path d="M801 5692 c-57 -65 -226 -252 -375 -416 -149 -165 -306 -338 -348 -385 l-77 -86 23 -25 c12 -14 130 -144 261 -290 132 -146 280 -310 330 -365 51 -55 179 -197 286 -315 107 -119 318 -353 469 -520 151 -167 365 -403 475 -525 110 -122 322 -356 470 -520 149 -164 360 -398 470 -520 110 -122 322 -356 470 -520 388 -428 659 -729 883 -977 108 -120 199 -218 203 -218 4 0 110 113 236 252 125 139 316 349 423 468 108 118 241 265 295 326 55 61 224 247 375 414 151 167 363 401 470 520 208 231 723 798 740 815 5 6 114 127 242 269 128 143 325 361 437 485 192 212 274 303 760 841 107 118 234 259 283 313 l90 97 -90 98 c-95 103 -277 305 -610 675 -113 125 -208 227 -212 227 -4 0 -108 -111 -231 -247 -123 -136 -312 -344 -419 -463 -108 -118 -240 -265 -295 -326 -55 -61 -224 -247 -375 -414 -661 -730 -1061 -1173 -1325 -1465 -110 -122 -324 -358 -475 -525 -151 -167 -284 -314 -296 -328 l-20 -25 -175 193 c-96 107 -243 270 -328 364 -85 94 -193 214 -241 266 -48 52 -156 172 -241 266 -85 94 -274 303 -420 465 -146 162 -357 395 -468 519 -111 124 -221 245 -245 270 -24 25 -130 142 -235 260 -105 118 -196 220 -201 225 -14 14 -501 551 -703 774 -92 102 -170 187 -175 188 -4 0 -54 -51 -111 -115z" transform="matrix(.1 0 0 -.1 0 582)"/></svg>