<svg xmlns="http://www.w3.org/2000/svg" version="1" viewBox="0 0 52 322"><path d="M51.078 26.003c0 13.889-11.246 25.164-25.098 25.164-13.851 0-25.097-11.275-25.097-25.164 0-13.888 11.246-25.163 25.097-25.163 13.852 0 25.098 11.275 25.098 25.163zM51.012 165.213c0 13.888-11.246 25.164-25.098 25.164-13.851 0-25.097-11.276-25.097-25.164 0-13.888 11.246-25.164 25.097-25.164 13.852 0 25.098 11.276 25.098 25.164zM51.144 295.997c0 13.888-11.246 25.163-25.097 25.163-13.852 0-25.098-11.275-25.098-25.163 0-13.889 11.246-25.164 25.098-25.164 13.851 0 25.097 11.275 25.097 25.164z"/></svg>