<svg xmlns="http://www.w3.org/2000/svg" version="1" viewBox="0 0 353 353"><path d="M1147 3514 c-237 -43 -483 -161 -674 -324 -229 -195 -403 -506 -457 -815 -21 -120 -21 -390 0 -510 48 -273 194 -556 389 -750 196 -197 486 -346 757 -390 123 -20 388 -20 502 0 132 23 268 70 406 141 l125 64 445 -444 c336 -337 456 -450 490 -465 62 -28 178 -28 240 0 60 27 107 74 136 134 32 66 33 179 3 245 -15 34 -128 154 -465 490 l-444 445 64 125 c71 138 118 274 141 406 20 114 20 379 0 502 -44 271 -193 561 -390 757 -194 195 -477 341 -750 389 -114 20 -407 20 -518 0z m508 -444 c430 -117 735 -511 735 -950 0 -535 -445 -980 -980 -980 -438 0 -836 309 -952 740 -33 123 -33 357 0 480 97 363 401 648 772 726 98 20 323 12 425 -16z" transform="matrix(.1 0 0 -.1 0 353)"/></svg>