<svg xmlns="http://www.w3.org/2000/svg" version="1" viewBox="0 0 400 206"><path d="M117 1942 c-64 -64 -117 -122 -116 -127 0 -9 1982 -1806 1998 -1812 3 -2 87 72 186 163 169 156 386 353 807 730 563 506 1007 910 1007 918 1 4 -53 62 -119 129 l-120 120 -22 -19 c-12 -10 -83 -75 -158 -144 -75 -69 -239 -217 -365 -330 -270 -242 -661 -594 -978 -879 -125 -114 -232 -207 -236 -209 -4 -1 -24 12 -44 30 -19 18 -68 62 -108 98 -40 36 -417 377 -838 757 -421 381 -768 693 -771 693 -3 0 -58 -53 -123 -118z" transform="matrix(.1 0 0 -.1 0 206)"/></svg>