<svg xmlns="http://www.w3.org/2000/svg" version="1" viewBox="0 0 141 141"><path d="M100 1399 c-76 -31 -119 -120 -91 -191 5 -13 115 -129 245 -258 130 -129 236 -239 236 -245 0 -5 -106 -116 -235 -245 -159 -159 -239 -246 -246 -268 -36 -110 85 -225 193 -183 13 5 129 115 258 245 129 130 239 236 244 236 6 0 119 -108 251 -239 154 -154 250 -242 268 -246 73 -19 168 43 183 119 12 67 -6 91 -251 336 -129 129 -235 239 -235 245 0 6 104 114 231 240 127 127 237 242 245 257 32 61 5 138 -65 185 -39 26 -90 30 -129 9 -15 -8 -130 -118 -257 -245 -126 -127 -234 -231 -240 -231 -6 0 -114 104 -240 231 -127 127 -244 237 -262 245 -37 16 -67 17 -103 3z" transform="matrix(.1 0 0 -.1 0 141)"/></svg>